<mxfile host="app.diagrams.net" modified="2024-05-27T01:27:51.489Z" agent="Mozilla/5.0 (Windows NT 10.0; Win64; x64) AppleWebKit/537.36 (KHTML, like Gecko) Chrome/125.0.0.0 Safari/537.36" version="24.2.2" etag="1d74eHCpdWRYnfyPkhdz" type="github">
  <diagram name="PÃ¡gina-1" id="HieypIONtOtMNNszY1LT">
    <mxGraphModel>
      <root>
        <mxCell id="0" />
        <mxCell id="1" parent="0" />
      </root>
    </mxGraphModel>
  </diagram>
</mxfile>
